<svg width="59" height="80" viewBox="0 0 59 80" fill="none" xmlns="http://www.w3.org/2000/svg">
<path d="M4.94583 25H53.3833L50.4875 71.3542C50.355 73.4699 49.4211 75.4557 47.876 76.9071C46.3309 78.3585 44.2907 79.1666 42.1708 79.1667H16.1625C14.0426 79.1666 12.0024 78.3585 10.4573 76.9071C8.91219 75.4557 7.97833 73.4699 7.84583 71.3542L4.94583 25ZM58.3333 12.5V20.8333H0V12.5H12.5V8.33333C12.5 6.1232 13.378 4.00358 14.9408 2.44078C16.5036 0.877973 18.6232 0 20.8333 0H37.5C39.7101 0 41.8297 0.877973 43.3926 2.44078C44.9554 4.00358 45.8333 6.1232 45.8333 8.33333V12.5H58.3333ZM20.8333 12.5H37.5V8.33333H20.8333V12.5Z" fill="#F8F8F8"/>
</svg>
