<svg width="76" height="84" viewBox="0 0 76 84" fill="none" xmlns="http://www.w3.org/2000/svg">
<path d="M67.1667 8.5H63V0.166672H54.6667V8.5H21.3333V0.166672H13V8.5H8.83333C4.25 8.5 0.5 12.25 0.5 16.8333V75.1667C0.5 77.3768 1.37797 79.4964 2.94078 81.0592C4.50358 82.622 6.6232 83.5 8.83333 83.5H67.1667C71.7917 83.5 75.5 79.7917 75.5 75.1667V16.8333C75.5 14.6232 74.622 12.5036 73.0592 10.9408C71.4964 9.37798 69.3768 8.5 67.1667 8.5ZM67.1667 75.1667H8.83333V33.5H67.1667V75.1667ZM8.83333 25.1667V16.8333H67.1667V25.1667H8.83333ZM32 68.75L56.75 44.0417L52.2917 39.625L32 59.9167L23.2083 51.125L18.7917 55.5417L32 68.75Z" fill="#F8F8F8"/>
</svg>
